<?xml version="1.0" encoding="utf-8"?>
<!-- Generator: Adobe Illustrator 23.0.6, SVG Export Plug-In . SVG Version: 6.00 Build 0)  -->
<svg version="1.1" id="Laag_1" xmlns="http://www.w3.org/2000/svg" xmlns:xlink="http://www.w3.org/1999/xlink" x="0px" y="0px"
	 viewBox="0 0 50 50" style="enable-background:new 0 0 50 50;" xml:space="preserve">
<style type="text/css">
	.st0{fill:#115E5C;}
	.st1{fill:none;stroke:#115E5C;stroke-width:1.5;stroke-miterlimit:10;}
</style>
<g>
	<g>
		<path class="st0" d="M25.3,46.1c-11.9,0-21.6-9.7-21.6-21.6S13.4,2.9,25.3,2.9s21.6,9.7,21.6,21.6S37.2,46.1,25.3,46.1z M25.3,4.7
			c-10.9,0-19.9,8.9-19.9,19.9s8.9,19.9,19.9,19.9s19.9-8.9,19.9-19.9S36.2,4.7,25.3,4.7z"/>
	</g>
	<g>
		<g>
			<line class="st1" x1="25.3" y1="11.5" x2="25.3" y2="34.5"/>
			<g>
				<path class="st0" d="M18.1,24.2c0.3-0.2,0.8-0.1,1,0.2l6.2,9.7l6.2-9.7c0.2-0.4,0.7-0.5,1-0.2c0.3,0.2,0.4,0.7,0.2,1l-6.8,10.7
					c-0.1,0.2-0.4,0.3-0.6,0.3c-0.3,0-0.5-0.1-0.6-0.3l-6.8-10.7c-0.1-0.1-0.1-0.3-0.1-0.4C17.7,24.6,17.9,24.4,18.1,24.2z"/>
			</g>
		</g>
	</g>
</g>
</svg>
