<?xml version="1.0" encoding="utf-8"?>
<!-- Generator: Adobe Illustrator 23.0.6, SVG Export Plug-In . SVG Version: 6.00 Build 0)  -->
<svg version="1.1" id="Laag_1" xmlns="http://www.w3.org/2000/svg" xmlns:xlink="http://www.w3.org/1999/xlink" x="0px" y="0px"
	 viewBox="0 0 142.1 157" style="enable-background:new 0 0 142.1 157;" xml:space="preserve">
<style type="text/css">
	.st0{fill:#00504C;}
	.st1{clip-path:url(#SVGID_2_);}
	.st2{clip-path:url(#SVGID_2_);fill:#00504C;}
</style>
<g>
	<defs>
		<rect id="SVGID_1_" x="7.3" y="11" width="127.6" height="136.7"/>
	</defs>
	<clipPath id="SVGID_2_">
		<use xlink:href="#SVGID_1_"  style="overflow:visible;"/>
	</clipPath>
	<g class="st1">
		<path class="st0" d="M36.6,128H16.4c0.4,5.4,4.5,9.3,10.2,9.3c3.8,0,7.3-2,8.7-4.9l2.2,1c-1.7,3.7-6.1,6.3-11,6.3
			c-7.4,0-12.7-5.3-12.7-12.6c0-7.2,4.9-12.4,11.6-12.4c6.7,0,11.3,5.2,11.3,12.4C36.7,127.3,36.6,127.7,36.6,128z M34,125.7
			c-0.5-5.1-3.9-8.6-8.6-8.6c-4.9,0-8.5,3.5-9,8.6H34z"/>
		<path class="st0" d="M41.4,131.9l2.5-0.6c0.3,3.5,3.6,5.9,7.9,5.9c3.9,0,6.9-2,6.9-4.8c0-2.9-3.5-3.7-7-4.5
			c-4.4-0.9-8.9-1.7-8.9-6.5c0-3.9,3.5-6.9,8.1-6.9c4.5,0,7.9,2.5,8.6,6.2l-2.4,0.7c-0.4-2.7-2.9-4.6-6.2-4.6c-3.2,0-5.6,2-5.6,4.5
			c0,3,3.5,3.5,7,4.2c4.4,0.9,8.9,2.1,8.9,6.6c0,4.3-4,7.4-9.3,7.4C46.3,139.6,42.1,136.4,41.4,131.9z"/>
		<path class="st0" d="M81,115.5v2.2H70.7v14.8c0,2.8,1.8,4.8,4.4,4.8c2.4,0,4.6-1.7,4.9-4.5l2.2,0.9c-0.6,3.5-3.8,5.8-7.3,5.8
			c-4,0-6.8-2.9-6.8-6.9v-15h-5.1v-2.1h4.3c0.6,0,1-0.4,1-0.9l0.2-5.4h2.2v6.2H81z"/>
		<path class="st0" d="M107.8,128H87.5c0.4,5.4,4.5,9.3,10.2,9.3c3.8,0,7.3-2,8.7-4.9l2.2,1c-1.7,3.7-6.1,6.3-11,6.3
			c-7.4,0-12.7-5.3-12.7-12.6c0-7.2,4.9-12.4,11.6-12.4c6.7,0,11.3,5.2,11.3,12.4C107.8,127.3,107.8,127.7,107.8,128z M105.1,125.7
			c-0.5-5.1-3.9-8.6-8.6-8.6c-4.9,0-8.5,3.5-9,8.6H105.1z"/>
		<path class="st0" d="M122.2,117c-3.5,0-6,3.4-6,8v13.7h-2.5v-23.1h2.4v3.7c1.2-2.8,3.6-4.6,6.6-4.6c3.6,0,6.5,2.8,7,6.4l-2.3,0.8
			C127.2,119,124.9,117,122.2,117z"/>
	</g>
	<path class="st2" d="M70.3,71 M68.8,70.6c-1.1-0.1-28-2.3-38.1,10c-3.6,4.3-4,8.9-1.1,12.4c5.4,6.7,17.6,5.9,26.3,1.4
		c11.7-6.2,14.4-13.9,14.9-18c0.4-3.1-0.2-5-0.5-5.3C69.6,70.8,69.5,70.8,68.8,70.6 M34.7,97.7c-2.5-1-4.6-2.4-6-4.1
		c-1.5-1.9-4.5-7,1.1-13.8c5.6-6.8,15.9-9.2,23.6-10.1c8.3-0.9,15.4-0.3,15.4-0.3l0.1,0c0.9,0.2,0.9,0.2,1.7,0.5c0,0,0,0,0,0
		c1,0.4,1.2,2.9,1.2,3.4c0.2,3.1-0.3,13.8-15.6,21.9C48.2,99.6,40.3,99.8,34.7,97.7"/>
	<path class="st2" d="M25.4,65.5c-4.6-1.7-7.6-4.1-8.9-7c-1.4-3.1-0.6-6.2,0-7.7c1.2-3,7.9-7.5,21.1-2.6c14.1,5.3,32.8,20.6,33,20.7
		l-0.7,0.9c-0.2-0.2-18.7-15.3-32.6-20.5c-13.6-5.1-18.9,0.2-19.6,1.9c-0.6,1.4-1.3,4,0,6.8c1.3,2.9,4.5,5.2,9.4,6.8
		c8.5,2.8,17.5,4.5,26.7,4.9l-0.1,1.1c-9.3-0.5-18.4-2.1-27-5C26.1,65.8,25.8,65.7,25.4,65.5"/>
	<path class="st2" d="M94,109.3C94,109.3,94,109.3,94,109.3c-7-2.6-19.3-11-23.3-37.8l1.1-0.2c3.9,26.2,15.9,34.4,22.6,36.9
		c0,0,0,0,0,0c2.5,0.9,7.2,0.8,9.3-1.8c2-2.5,1.1-6.9-2.7-12.6C95,84.6,86,79.8,79.5,76.2l-0.8-0.4l0.5-1l0.8,0.4
		c6.7,3.6,15.8,8.5,22,18c2.8,4.3,5.6,10.2,2.6,13.9C102.2,110.2,96.9,110.4,94,109.3"/>
	<path class="st2" d="M82,77.2c-4.3-1.6-8-3.4-11.1-5.3l0.6-0.9c6.9,4.3,17.6,8,28.7,10c8.4,1.5,17.6,1.9,19-0.3
		c0.4-0.7,0.5-1.5,0.1-2.3c-0.6-1.4-3.6-6.3-20.1-10.5c-4.2-1.1-8.4-1.5-12.5-1.4c-9.2,0.4-15.5,3.6-15.6,3.6l-0.9,0.5l0.1-1.1
		c0.1-0.4,5.1-37.8,12.4-54l1,0.5c-6.6,14.6-11.3,46.6-12.2,52.7c2.1-0.9,7.6-3,15.1-3.3c4.2-0.2,8.5,0.3,12.8,1.4
		c11.6,3,19.2,7,20.9,11.2c0.5,1.2,0.4,2.4-0.2,3.3c-1.9,2.9-11.6,2.3-20.1,0.8C93.7,80.9,87.5,79.2,82,77.2"/>
	<path class="st2" d="M67.5,67.7c-0.2-0.1-5.2-3.3-9.3-8.1C52.7,53,51.5,46.6,54.8,41c3.1-5.2,11.5-5.7,18.3-4.5
		c3.4,0.6,8.6,2.2,13.2,4.7c5.9,3.3,9.1,7.3,9.4,11.8c0.3,4.4-0.8,7.9-3.1,10.3c-3.4,3.5-8.2,3.3-8.4,3.3l0-1.1c0,0,4.5,0.1,7.6-3
		c2.1-2.1,3-5.3,2.7-9.4c-0.6-9.5-15.8-14.4-21.6-15.5c-9.9-1.8-15.4,0.8-17.2,3.9c-7.3,12.5,12.2,25,12.4,25.1L67.5,67.7z"/>
	<path class="st2" d="M69.2,68.6c-3.7-10.5,0.2-52.2,0.4-54l1.1,0.1c0,0.4-4.1,43.2-0.5,53.5L69.2,68.6z"/>
	<path class="st2" d="M68.7,68.6c-6.4-5.9-5.6-31.6-5.4-40c0-1.1,0.1-2.1,0-2.3c0,0,0,0.1,0,0.1l1-0.5c0.1,0.2,0.1,0.2,0,2.6
		c-0.7,22.3,1,35.5,5,39.2L68.7,68.6z"/>
	<path class="st2" d="M68,67.7c-7.8-10.1-10.8-20-11.9-26.6c-1.2-7.1-0.7-11.8-0.6-12l1.1,0.1c0,0.2-2.3,18.8,12.3,37.7L68,67.7z"/>
	<path class="st2" d="M68.6,69.5c-2.1-0.8-6.1-2.5-10.2-5.4C50.8,58.8,47,51.9,47.3,44.4l1.1,0c-0.7,17.4,21.6,24.4,21.9,24.5L70,70
		C69.9,69.9,69.4,69.8,68.6,69.5"/>
	<path class="st2" d="M71.3,71.7l0.1-1.1c0.2,0,17.7,2,31.9-10l0.7,0.8C89.4,73.8,71.4,71.7,71.3,71.7"/>
	<path class="st2" d="M70.7,70.9L70.1,70c6.9-4.4,14-12.3,20.5-22.6c4.8-7.6,7.7-14.1,8.2-15.3c0-0.1,0.1-0.1,0.1-0.2l0.4,0.4
		l0.5,0.2c-0.5,1.3-3.5,7.8-8.3,15.5C84.8,58.6,77.8,66.3,70.7,70.9"/>
	<path class="st2" d="M70.9,71.3l-0.3-1.1c24.2-6.9,32.9-26.9,32.9-27.1l0.5,0.2l0,0l0.5,0.1C104.5,43.6,95.7,64.2,70.9,71.3"/>
	<path class="st2" d="M71.6,71l-1-0.4C73.7,63,83,49.1,83.1,49l0.9,0.6C83.9,49.7,74.7,63.5,71.6,71"/>
	<path class="st2" d="M70.4,69.4C78.1,47,90.7,24.2,90.9,24l1,0.5c-0.1,0.2-12.7,22.9-20.4,45.2L70.4,69.4z"/>
	<path class="st2" d="M84.1,13.3c-0.5-0.2-1.1,0.1-1.3,0.6c-0.2,0.5,0.1,1.1,0.6,1.3c0.5,0.2,1.1-0.1,1.3-0.6
		C84.9,14.1,84.7,13.5,84.1,13.3 M83.1,16.2c-1.1-0.4-1.6-1.6-1.2-2.7c0.4-1.1,1.6-1.6,2.7-1.2c1.1,0.4,1.6,1.6,1.2,2.7
		C85.4,16.1,84.1,16.6,83.1,16.2"/>
	<path class="st2" d="M75.8,23.7c-0.2-0.1-0.4-0.1-0.7,0c-0.5,0.2-0.8,0.7-0.6,1.3c0.2,0.5,0.7,0.8,1.3,0.6c0.3-0.1,0.5-0.3,0.6-0.5
		c0.1-0.2,0.1-0.5,0.1-0.8C76.3,24.1,76,23.8,75.8,23.7 M74.7,26.6c-0.6-0.2-1.1-0.7-1.3-1.3c-0.4-1.1,0.2-2.3,1.3-2.7
		c1.1-0.4,2.3,0.2,2.7,1.3c0.2,0.5,0.1,1.1-0.1,1.6c-0.3,0.5-0.7,0.9-1.2,1.1C75.6,26.8,75.1,26.8,74.7,26.6"/>
	<path class="st2" d="M70.8,12.2c-0.2-0.1-0.4-0.1-0.7,0c-0.5,0.2-0.8,0.7-0.6,1.3c0.1,0.3,0.3,0.5,0.5,0.6c0.2,0.1,0.5,0.1,0.8,0.1
		c0.3-0.1,0.5-0.3,0.6-0.5c0.1-0.2,0.1-0.5,0.1-0.8C71.3,12.5,71.1,12.3,70.8,12.2 M69.7,15.1c-0.1,0-0.1-0.1-0.2-0.1
		c-0.5-0.3-0.9-0.7-1.1-1.2c-0.4-1.1,0.2-2.3,1.3-2.7c1.1-0.4,2.3,0.2,2.7,1.3c0.2,0.5,0.1,1.1-0.1,1.6c-0.3,0.5-0.7,0.9-1.2,1.1
		C70.7,15.3,70.2,15.3,69.7,15.1"/>
	<path class="st2" d="M64.2,23.6c-0.1,0-0.2-0.1-0.3-0.1c-0.3,0-0.5,0.1-0.7,0.2c-0.2,0.2-0.3,0.4-0.4,0.7c0,0.3,0.1,0.5,0.2,0.7
		c0.2,0.2,0.4,0.3,0.7,0.4c0.3,0,0.5-0.1,0.7-0.2c0.2-0.2,0.3-0.4,0.4-0.7c0-0.3-0.1-0.5-0.2-0.7C64.5,23.7,64.4,23.6,64.2,23.6
		 M63.1,26.5c-0.3-0.1-0.6-0.3-0.9-0.6c-0.4-0.4-0.5-1-0.5-1.5c0.1-0.6,0.3-1.1,0.8-1.4c0.4-0.4,1-0.5,1.5-0.5
		c0.6,0.1,1.1,0.3,1.4,0.8c0.7,0.9,0.6,2.2-0.3,3C64.6,26.6,63.8,26.7,63.1,26.5"/>
	<path class="st2" d="M56.3,26.7c-0.1,0-0.1,0-0.2-0.1c-0.3,0-0.5,0-0.7,0.2c-0.2,0.2-0.3,0.4-0.4,0.7c-0.1,0.5,0.3,1,0.9,1.1
		c0.5,0.1,1-0.3,1.1-0.9c0-0.3,0-0.5-0.2-0.7C56.6,26.9,56.4,26.8,56.3,26.7 M55.2,29.6c-0.9-0.3-1.5-1.3-1.4-2.3
		c0.1-0.6,0.4-1.1,0.8-1.4c0.4-0.3,1-0.5,1.6-0.4c0.6,0.1,1.1,0.4,1.4,0.8c0.3,0.4,0.5,1,0.4,1.6c-0.2,1.2-1.2,2-2.4,1.8
		C55.5,29.7,55.3,29.7,55.2,29.6"/>
	<path class="st2" d="M48.4,42.2C48.4,42.2,48.3,42.2,48.4,42.2c-0.3-0.1-0.6-0.1-0.8,0c-0.2,0.1-0.4,0.3-0.5,0.6
		C47,43,47,43.3,47.1,43.6c0.1,0.2,0.3,0.4,0.6,0.5c0.3,0.1,0.5,0.1,0.8-0.1c0.2-0.1,0.4-0.3,0.5-0.6s0.1-0.5-0.1-0.8
		C48.8,42.4,48.6,42.3,48.4,42.2 M47.3,45.1c-0.5-0.2-0.9-0.6-1.1-1c-0.3-0.5-0.3-1.1-0.1-1.6c0.2-0.5,0.6-1,1.1-1.2
		c0.5-0.3,1.1-0.3,1.6-0.1c0.5,0.2,1,0.6,1.2,1.1c0.3,0.5,0.3,1.1,0.1,1.6c-0.2,0.5-0.6,1-1.1,1.2C48.5,45.2,47.9,45.3,47.3,45.1
		C47.3,45.1,47.3,45.1,47.3,45.1"/>
	<path class="st2" d="M92.3,21.9C92.2,21.9,92.2,21.9,92.3,21.9c-0.3-0.1-0.6-0.1-0.8,0C91.2,22,91,22.2,91,22.5
		c-0.1,0.3-0.1,0.5,0.1,0.8c0.1,0.2,0.3,0.4,0.6,0.5c0.3,0.1,0.5,0.1,0.8-0.1c0.2-0.1,0.4-0.3,0.5-0.6s0.1-0.5-0.1-0.8
		C92.7,22.1,92.5,22,92.3,21.9 M91.2,24.8c-0.5-0.2-0.9-0.6-1.1-1c-0.3-0.5-0.3-1.1-0.1-1.6c0.2-0.5,0.6-1,1.1-1.2
		c0.5-0.3,1.1-0.3,1.6-0.1c0.5,0.2,1,0.6,1.2,1.1c0.3,0.5,0.3,1.1,0.1,1.6c-0.2,0.5-0.6,1-1.1,1.2C92.3,24.9,91.8,25,91.2,24.8
		C91.2,24.8,91.2,24.8,91.2,24.8"/>
	<path class="st2" d="M98.9,30.6c-0.2,0.5,0.1,1.1,0.6,1.3c0.5,0.2,1.1-0.1,1.3-0.6c0.2-0.5-0.1-1.1-0.6-1.3
		C99.6,29.8,99,30,98.9,30.6 M99.1,32.9c-1.1-0.4-1.6-1.6-1.3-2.6c0.4-1.1,1.6-1.7,2.7-1.3c1.1,0.4,1.7,1.6,1.3,2.7
		C101.5,32.7,100.3,33.3,99.1,32.9C99.1,32.9,99.1,32.9,99.1,32.9"/>
	<path class="st2" d="M104.1,41.7c-0.2,0.5,0.1,1.1,0.6,1.3c0.5,0.2,1.1-0.1,1.3-0.6c0.2-0.5-0.1-1.1-0.6-1.3
		C104.9,40.9,104.3,41.1,104.1,41.7 M104.3,44c-1.1-0.4-1.6-1.6-1.3-2.6c0.4-1.1,1.6-1.7,2.7-1.3c1.1,0.4,1.7,1.6,1.3,2.7
		C106.7,43.8,105.5,44.4,104.3,44C104.4,44,104.4,44,104.3,44"/>
	<path class="st2" d="M103.6,59.4c-0.2,0.5,0.1,1.1,0.6,1.3c0.5,0.2,1.1-0.1,1.3-0.6c0.2-0.5-0.1-1.1-0.6-1.3
		C104.3,58.6,103.7,58.9,103.6,59.4 M103.8,61.7c-1.1-0.4-1.6-1.6-1.3-2.6v0c0.4-1.1,1.6-1.7,2.7-1.3c1.1,0.4,1.7,1.6,1.3,2.7
		C106.1,61.5,104.9,62.1,103.8,61.7C103.8,61.7,103.8,61.7,103.8,61.7"/>
	<path class="st2" d="M83.1,47.7c-0.2,0.5,0.1,1.1,0.6,1.3c0.5,0.2,1.1-0.1,1.3-0.6c0.2-0.5-0.1-1.1-0.6-1.3
		C83.9,46.9,83.3,47.2,83.1,47.7 M83.3,50c-1.1-0.4-1.6-1.6-1.3-2.6c0.2-0.5,0.6-1,1.1-1.2c0.5-0.3,1.1-0.3,1.6-0.1
		c1.1,0.4,1.7,1.6,1.3,2.7C85.7,49.8,84.5,50.4,83.3,50C83.4,50,83.3,50,83.3,50"/>
	<path class="st2" d="M69.7,70c0.3-15.1,1.7-26.2,2.8-32.9c1.2-7.3,2.2-10.9,2.3-11l1.1,0.3c0,0.1-4.4,14.9-5,43.6L69.7,70z"/>
	<path class="st2" d="M71.7,69.8c0.1-0.2,0.7-1.5,0.7-1.5l5-1l-0.1,1.1l-4.4,1.9L71.7,69.8z"/>
</g>
</svg>
