<?xml version="1.0" encoding="utf-8"?>
<!-- Generator: Adobe Illustrator 23.0.6, SVG Export Plug-In . SVG Version: 6.00 Build 0)  -->
<svg version="1.1" id="Laag_1" xmlns="http://www.w3.org/2000/svg" xmlns:xlink="http://www.w3.org/1999/xlink" x="0px" y="0px"
	 viewBox="0 0 133.6 117.1" style="enable-background:new 0 0 133.6 117.1;" xml:space="preserve">
<style type="text/css">
	.st0{fill:#00504C;}
	.st1{clip-path:url(#SVGID_2_);}
	.st2{clip-path:url(#SVGID_2_);fill:#00504C;}
</style>
<g>
	<path class="st0" d="M66.6,69.5 M65.1,69.1c-1.1-0.1-28-2.3-38.1,10c-3.6,4.3-4,8.9-1.1,12.4c5.4,6.7,17.6,5.9,26.3,1.4
		c11.7-6.2,14.4-13.9,14.9-18c0.4-3.1-0.2-5-0.5-5.3C65.9,69.3,65.9,69.2,65.1,69.1 M31.1,96.2c-2.5-1-4.6-2.4-6-4.1
		c-1.5-1.9-4.5-7,1.1-13.8c5.6-6.8,15.9-9.2,23.6-10.1c8.3-0.9,15.4-0.3,15.4-0.3l0.1,0c0.9,0.2,0.9,0.2,1.7,0.5c0,0,0,0,0,0
		c1,0.4,1.2,2.9,1.2,3.4c0.2,3.1-0.3,13.8-15.6,21.9C44.5,98.1,36.7,98.3,31.1,96.2"/>
	<path class="st0" d="M21.8,64c-4.6-1.7-7.6-4.1-8.9-7c-1.4-3.1-0.6-6.2,0-7.7c1.2-3,7.9-7.5,21.1-2.6C48,52,66.7,67.3,66.9,67.5
		l-0.7,0.9C66,68.2,47.4,53,33.5,47.8c-13.6-5.1-19,0.2-19.6,1.9c-0.6,1.4-1.3,4,0,6.8c1.3,2.9,4.5,5.2,9.4,6.8
		c8.5,2.8,17.5,4.5,26.7,4.9l-0.1,1.1c-9.3-0.5-18.4-2.1-27-5C22.5,64.3,22.1,64.2,21.8,64"/>
	<path class="st0" d="M90.4,107.8C90.4,107.8,90.4,107.8,90.4,107.8c-7-2.6-19.3-11-23.3-37.8l1.1-0.2C72.1,96,84,104.2,90.8,106.7
		c0,0,0,0,0,0c2.5,0.9,7.2,0.8,9.3-1.8c2-2.5,1.1-6.9-2.7-12.6c-6.1-9.3-15-14.1-21.6-17.7L75,74.3l0.5-1l0.8,0.4
		c6.7,3.6,15.8,8.5,22,18c2.8,4.3,5.6,10.2,2.6,13.9C98.5,108.7,93.3,108.9,90.4,107.8"/>
	<path class="st0" d="M78.4,75.7c-4.3-1.6-8-3.4-11.1-5.3l0.6-0.9c6.9,4.3,17.6,8,28.7,10c8.4,1.5,17.6,1.9,19-0.3
		c0.4-0.7,0.5-1.5,0.1-2.3c-0.6-1.4-3.6-6.3-20.1-10.5c-4.2-1.1-8.4-1.5-12.5-1.4c-9.2,0.4-15.5,3.6-15.6,3.6L66.6,69l0.1-1.1
		c0.1-0.4,5.1-37.8,12.4-54l1,0.5C73.6,29,68.9,61,68,67.1c2.1-0.9,7.6-3,15.1-3.3c4.2-0.2,8.5,0.3,12.8,1.4
		c11.6,3,19.2,7,20.9,11.2c0.5,1.2,0.4,2.4-0.2,3.3c-1.9,2.9-11.6,2.3-20.1,0.8C90.1,79.4,83.9,77.7,78.4,75.7"/>
	<path class="st0" d="M63.9,66.1c-0.2-0.1-5.2-3.3-9.3-8.1c-5.5-6.5-6.8-12.9-3.5-18.5c3.1-5.2,11.5-5.7,18.3-4.5
		c3.4,0.6,8.6,2.2,13.2,4.7C88.6,43,91.7,47,92,51.5c0.3,4.4-0.8,7.9-3.1,10.3c-3.4,3.5-8.2,3.3-8.4,3.3l0-1.1c0,0,4.5,0.1,7.6-3
		c2.1-2.1,3-5.3,2.7-9.4c-0.6-9.5-15.8-14.4-21.6-15.5c-9.9-1.8-15.4,0.8-17.2,3.9c-7.3,12.5,12.2,25,12.4,25.1L63.9,66.1z"/>
	<path class="st0" d="M65.6,67.1c-3.7-10.5,0.2-52.2,0.4-54l1.1,0.1c0,0.4-4.1,43.2-0.5,53.5L65.6,67.1z"/>
	<path class="st0" d="M65.1,67.1c-6.4-5.9-5.6-31.6-5.4-40c0-1.1,0.1-2.1,0-2.3c0,0,0,0.1,0,0.1l1-0.5c0.1,0.2,0.1,0.2,0,2.6
		c-0.7,22.3,1,35.5,5,39.2L65.1,67.1z"/>
	<path class="st0" d="M64.3,66.2c-7.8-10.1-10.8-20-11.9-26.6c-1.2-7.1-0.7-11.8-0.6-12l1.1,0.1c0,0.2-2.3,18.8,12.3,37.7L64.3,66.2
		z"/>
	<path class="st0" d="M64.9,67.9c-2.1-0.8-6.1-2.5-10.2-5.4c-7.6-5.4-11.4-12.2-11.1-19.7l1.1,0c-0.7,17.4,21.6,24.4,21.9,24.5
		l-0.3,1.1C66.3,68.4,65.8,68.3,64.9,67.9"/>
	<path class="st0" d="M67.6,70.2l0.1-1.1c0.2,0,17.7,2,31.9-10l0.7,0.8C85.8,72.3,67.8,70.2,67.6,70.2"/>
	<path class="st0" d="M67.1,69.4l-0.6-0.9c6.9-4.4,14-12.3,20.5-22.6c4.8-7.6,7.7-14.1,8.2-15.3c0-0.1,0.1-0.1,0.1-0.2l0.4,0.4
		l0.5,0.2c-0.6,1.3-3.5,7.8-8.3,15.5C81.2,57.1,74.2,64.8,67.1,69.4"/>
	<path class="st0" d="M67.3,69.7L67,68.7c24.2-6.9,32.9-26.9,32.9-27.1l0.5,0.2l0,0l0.5,0.1C100.9,42.1,92.1,62.6,67.3,69.7"/>
	<path class="st0" d="M68,69.4L67,69c3.1-7.5,12.4-21.4,12.5-21.6l0.9,0.6C80.3,48.2,71,62,68,69.4"/>
	<path class="st0" d="M66.8,67.9c7.7-22.4,20.3-45.2,20.4-45.4l1,0.5c-0.1,0.2-12.7,22.9-20.4,45.2L66.8,67.9z"/>
	<path class="st0" d="M80.5,11.8c-0.5-0.2-1.1,0.1-1.3,0.6s0.1,1.1,0.6,1.3c0.5,0.2,1.1-0.1,1.3-0.6S81,12,80.5,11.8 M79.4,14.7
		c-1.1-0.4-1.6-1.6-1.2-2.7c0.4-1.1,1.6-1.6,2.7-1.2c1.1,0.4,1.6,1.6,1.2,2.7C81.7,14.5,80.5,15.1,79.4,14.7"/>
	<path class="st0" d="M72.1,22.2c-0.2-0.1-0.4-0.1-0.7,0c-0.5,0.2-0.8,0.7-0.6,1.3c0.2,0.5,0.7,0.8,1.3,0.6c0.3-0.1,0.5-0.3,0.6-0.5
		c0.1-0.2,0.1-0.5,0.1-0.8C72.6,22.5,72.4,22.3,72.1,22.2 M71,25.1c-0.6-0.2-1.1-0.7-1.3-1.3c-0.4-1.1,0.2-2.3,1.3-2.7
		c1.1-0.4,2.3,0.2,2.7,1.3c0.2,0.5,0.1,1.1-0.1,1.6c-0.3,0.5-0.7,0.9-1.2,1.1C72,25.3,71.5,25.3,71,25.1"/>
	<path class="st0" d="M67.2,10.7c-0.2-0.1-0.4-0.1-0.7,0c-0.5,0.2-0.8,0.7-0.6,1.3c0.1,0.3,0.3,0.5,0.5,0.6c0.2,0.1,0.5,0.1,0.8,0.1
		c0.3-0.1,0.5-0.3,0.6-0.5c0.1-0.2,0.1-0.5,0.1-0.8C67.7,11,67.5,10.8,67.2,10.7 M66.1,13.6c-0.1,0-0.1-0.1-0.2-0.1
		c-0.5-0.3-0.9-0.7-1.1-1.2c-0.4-1.1,0.2-2.3,1.3-2.7c1.1-0.4,2.3,0.2,2.7,1.3c0.2,0.5,0.1,1.1-0.1,1.6c-0.3,0.5-0.7,0.9-1.2,1.1
		C67,13.8,66.5,13.8,66.1,13.6"/>
	<path class="st0" d="M60.6,22.1c-0.1,0-0.2-0.1-0.3-0.1c-0.3,0-0.5,0.1-0.7,0.2c-0.2,0.2-0.3,0.4-0.4,0.7c0,0.3,0.1,0.5,0.2,0.7
		c0.2,0.2,0.4,0.3,0.7,0.4c0.3,0,0.5-0.1,0.7-0.2c0.2-0.2,0.3-0.4,0.4-0.7c0-0.3-0.1-0.5-0.2-0.7C60.9,22.2,60.8,22.1,60.6,22.1
		 M59.5,25c-0.3-0.1-0.6-0.3-0.9-0.6c-0.4-0.4-0.5-1-0.5-1.5c0.1-0.6,0.3-1.1,0.8-1.4c0.4-0.4,1-0.5,1.5-0.5
		c0.6,0.1,1.1,0.3,1.4,0.8c0.7,0.9,0.6,2.2-0.3,3C61,25.1,60.2,25.2,59.5,25"/>
	<path class="st0" d="M52.6,25.2c-0.1,0-0.1,0-0.2-0.1c-0.3,0-0.5,0-0.7,0.2c-0.2,0.2-0.3,0.4-0.4,0.7c-0.1,0.5,0.3,1,0.9,1.1
		c0.5,0.1,1-0.3,1.1-0.9c0-0.3,0-0.5-0.2-0.7C53,25.3,52.8,25.2,52.6,25.2 M51.5,28.1c-0.9-0.3-1.5-1.3-1.4-2.3
		c0.1-0.6,0.4-1.1,0.8-1.4c0.4-0.3,1-0.5,1.6-0.4c0.6,0.1,1.1,0.4,1.4,0.8c0.3,0.4,0.5,1,0.4,1.6c-0.2,1.2-1.2,2-2.4,1.8
		C51.8,28.2,51.7,28.1,51.5,28.1"/>
	<path class="st0" d="M44.7,40.7C44.7,40.6,44.7,40.6,44.7,40.7c-0.3-0.1-0.6-0.1-0.8,0c-0.2,0.1-0.4,0.3-0.5,0.6
		c-0.1,0.3-0.1,0.5,0.1,0.8c0.1,0.2,0.3,0.4,0.6,0.5c0.3,0.1,0.5,0.1,0.8-0.1c0.2-0.1,0.4-0.3,0.5-0.6s0.1-0.5-0.1-0.8
		C45.2,40.9,45,40.7,44.7,40.7 M43.6,43.6c-0.5-0.2-0.9-0.6-1.1-1c-0.3-0.5-0.3-1.1-0.1-1.6c0.2-0.5,0.6-1,1.1-1.2
		c0.5-0.3,1.1-0.3,1.6-0.1c0.5,0.2,1,0.6,1.2,1.1c0.3,0.5,0.3,1.1,0.1,1.6c-0.2,0.5-0.6,1-1.1,1.2C44.8,43.7,44.3,43.8,43.6,43.6
		C43.7,43.6,43.7,43.6,43.6,43.6"/>
	<path class="st0" d="M88.6,20.4C88.6,20.3,88.6,20.3,88.6,20.4c-0.3-0.1-0.6-0.1-0.8,0c-0.2,0.1-0.4,0.3-0.5,0.6
		c-0.1,0.3-0.1,0.5,0.1,0.8c0.1,0.2,0.3,0.4,0.6,0.5c0.3,0.1,0.5,0.1,0.8-0.1c0.2-0.1,0.4-0.3,0.5-0.6s0.1-0.5-0.1-0.8
		C89.1,20.6,88.9,20.4,88.6,20.4 M87.5,23.3c-0.5-0.2-0.9-0.6-1.1-1c-0.3-0.5-0.3-1.1-0.1-1.6c0.2-0.5,0.6-1,1.1-1.2
		c0.5-0.3,1.1-0.3,1.6-0.1c0.5,0.2,1,0.6,1.2,1.1c0.3,0.5,0.3,1.1,0.1,1.6c-0.2,0.5-0.6,1-1.1,1.2C88.7,23.4,88.1,23.5,87.5,23.3
		C87.6,23.3,87.6,23.3,87.5,23.3"/>
	<path class="st0" d="M95.2,29.1c-0.2,0.5,0.1,1.1,0.6,1.3c0.5,0.2,1.1-0.1,1.3-0.6c0.2-0.5-0.1-1.1-0.6-1.3
		C96,28.2,95.4,28.5,95.2,29.1 M95.4,31.3c-1.1-0.4-1.6-1.6-1.3-2.6c0.4-1.1,1.6-1.7,2.7-1.3c1.1,0.4,1.7,1.6,1.3,2.7
		C97.8,31.1,96.6,31.7,95.4,31.3C95.5,31.4,95.5,31.4,95.4,31.3"/>
	<path class="st0" d="M100.5,40.2c-0.2,0.5,0.1,1.1,0.6,1.3c0.5,0.2,1.1-0.1,1.3-0.6c0.2-0.5-0.1-1.1-0.6-1.3
		C101.2,39.3,100.7,39.6,100.5,40.2 M100.7,42.4c-1.1-0.4-1.6-1.6-1.3-2.6c0.4-1.1,1.6-1.7,2.7-1.3c1.1,0.4,1.7,1.6,1.3,2.7
		C103.1,42.2,101.9,42.8,100.7,42.4C100.8,42.5,100.7,42.5,100.7,42.4"/>
	<path class="st0" d="M99.9,57.9c-0.2,0.5,0.1,1.1,0.6,1.3c0.5,0.2,1.1-0.1,1.3-0.6c0.2-0.5-0.1-1.1-0.6-1.3
		C100.7,57.1,100.1,57.4,99.9,57.9 M100.1,60.2c-1.1-0.4-1.6-1.6-1.3-2.6v0c0.4-1.1,1.6-1.7,2.7-1.3c1.1,0.4,1.7,1.6,1.3,2.7
		C102.5,60,101.3,60.6,100.1,60.2C100.2,60.2,100.2,60.2,100.1,60.2"/>
	<path class="st0" d="M79.5,46.2c-0.2,0.5,0.1,1.1,0.6,1.3c0.5,0.2,1.1-0.1,1.3-0.6c0.2-0.5-0.1-1.1-0.6-1.3
		C80.2,45.4,79.7,45.7,79.5,46.2 M79.7,48.5c-1.1-0.4-1.6-1.6-1.3-2.6c0.2-0.5,0.6-1,1.1-1.2c0.5-0.3,1.1-0.3,1.6-0.1
		c1.1,0.4,1.7,1.6,1.3,2.7C82.1,48.3,80.9,48.9,79.7,48.5C79.7,48.5,79.7,48.5,79.7,48.5"/>
	<path class="st0" d="M66.1,68.4c0.3-15.1,1.7-26.2,2.8-32.9c1.2-7.3,2.2-10.9,2.3-11l1.1,0.3c0,0.1-4.4,14.9-5,43.6L66.1,68.4z"/>
	<path class="st0" d="M68,68.3c0.1-0.2,0.7-1.5,0.7-1.5l5-1l-0.1,1.1l-4.4,1.9L68,68.3z"/>
</g>
</svg>
