<?xml version="1.0" encoding="utf-8"?>
<!-- Generator: Adobe Illustrator 23.0.6, SVG Export Plug-In . SVG Version: 6.00 Build 0)  -->
<svg version="1.1" id="Laag_1" xmlns="http://www.w3.org/2000/svg" xmlns:xlink="http://www.w3.org/1999/xlink" x="0px" y="0px"
	 viewBox="0 0 143.5 58.7" style="enable-background:new 0 0 143.5 58.7;" xml:space="preserve">
<style type="text/css">
	.st0{fill:#00504C;}
	.st1{clip-path:url(#SVGID_2_);}
	.st2{clip-path:url(#SVGID_2_);fill:#00504C;}
</style>
<g>
	<path class="st0" d="M37.4,31.9H17.1c0.4,5.4,4.5,9.3,10.2,9.3c3.8,0,7.3-2,8.7-4.9l2.2,1c-1.7,3.7-6.1,6.3-11,6.3
		c-7.4,0-12.7-5.3-12.7-12.6c0-7.2,4.9-12.4,11.6-12.4c6.7,0,11.3,5.2,11.3,12.4C37.5,31.2,37.4,31.6,37.4,31.9z M34.8,29.6
		c-0.5-5.1-3.9-8.6-8.6-8.6c-4.9,0-8.5,3.5-9,8.6H34.8z"/>
	<path class="st0" d="M42.1,35.8l2.5-0.6c0.3,3.5,3.6,5.9,7.9,5.9c3.9,0,6.9-2,6.9-4.8c0-2.9-3.5-3.7-7-4.5
		c-4.4-0.9-8.9-1.7-8.9-6.5c0-3.9,3.5-6.9,8.1-6.9c4.5,0,7.9,2.5,8.6,6.2l-2.4,0.7c-0.4-2.7-2.9-4.6-6.2-4.6c-3.2,0-5.6,2-5.6,4.5
		c0,3,3.5,3.5,7,4.2c4.4,0.9,8.9,2.1,8.9,6.6c0,4.3-4,7.4-9.3,7.4C47.1,43.5,42.8,40.3,42.1,35.8z"/>
	<path class="st0" d="M81.8,19.4v2.2H71.5v14.8c0,2.8,1.8,4.8,4.4,4.8c2.4,0,4.6-1.7,4.9-4.5l2.2,0.9c-0.6,3.5-3.8,5.8-7.3,5.8
		c-4,0-6.8-2.9-6.8-6.9v-15h-5.1v-2.1h4.3c0.6,0,1-0.4,1-0.9l0.2-5.4h2.2v6.2H81.8z"/>
	<path class="st0" d="M108.5,31.9H88.2c0.4,5.4,4.5,9.3,10.2,9.3c3.8,0,7.3-2,8.7-4.9l2.2,1c-1.7,3.7-6.1,6.3-11,6.3
		c-7.4,0-12.7-5.3-12.7-12.6c0-7.2,4.9-12.4,11.6-12.4c6.7,0,11.3,5.2,11.3,12.4C108.6,31.2,108.5,31.6,108.5,31.9z M105.9,29.6
		c-0.5-5.1-3.9-8.6-8.6-8.6c-4.9,0-8.5,3.5-9,8.6H105.9z"/>
	<path class="st0" d="M123,20.9c-3.5,0-6,3.4-6,8v13.7h-2.5V19.4h2.4v3.7c1.2-2.8,3.6-4.6,6.6-4.6c3.6,0,6.5,2.8,7,6.4l-2.3,0.8
		C127.9,22.9,125.7,20.9,123,20.9z"/>
</g>
</svg>
