<?xml version="1.0" encoding="utf-8"?>
<!-- Generator: Adobe Illustrator 23.0.6, SVG Export Plug-In . SVG Version: 6.00 Build 0)  -->
<svg version="1.1" id="Laag_1" xmlns="http://www.w3.org/2000/svg" xmlns:xlink="http://www.w3.org/1999/xlink" x="0px" y="0px"
	 viewBox="0 0 50 50" style="enable-background:new 0 0 50 50;" xml:space="preserve">
<style type="text/css">
	.st0{fill:#115E5C;}
	.st1{fill:none;stroke:#115E5C;stroke-width:1.5;stroke-miterlimit:10;}
</style>
<g>
	<g>
		<path class="st0" d="M46.9,24.5c0,11.9-9.7,21.6-21.6,21.6S3.7,36.4,3.7,24.5S13.4,2.9,25.3,2.9S46.9,12.6,46.9,24.5z M5.5,24.5
			c0,10.9,8.9,19.9,19.9,19.9s19.9-8.9,19.9-19.9S36.4,4.6,25.4,4.6S5.5,13.6,5.5,24.5z"/>
	</g>
	<g>
		<g>
			<line class="st1" x1="12.3" y1="24.5" x2="35.3" y2="24.5"/>
			<g>
				<path class="st0" d="M25,31.7c-0.2-0.3-0.1-0.8,0.2-1l9.7-6.2l-9.7-6.2c-0.4-0.2-0.5-0.7-0.2-1c0.2-0.3,0.7-0.4,1-0.2l10.7,6.8
					c0.2,0.1,0.3,0.4,0.3,0.6c0,0.3-0.1,0.5-0.3,0.6L26,31.9C25.9,32,25.7,32,25.6,32C25.4,32.1,25.2,31.9,25,31.7z"/>
			</g>
		</g>
	</g>
</g>
</svg>
