<?xml version="1.0" encoding="utf-8"?>
<!-- Generator: Adobe Illustrator 23.0.2, SVG Export Plug-In . SVG Version: 6.00 Build 0)  -->
<svg version="1.1" id="Laag_1" xmlns="http://www.w3.org/2000/svg" xmlns:xlink="http://www.w3.org/1999/xlink" x="0px" y="0px"
	 viewBox="0 0 50 50" style="enable-background:new 0 0 50 50;" xml:space="preserve">
<style type="text/css">
	.st0{fill:#FFFFFF;}
</style>
<g>
	<g>
		<g>
			<g>
				<rect x="24.12" y="9.15" class="st0" width="2.31" height="28.26"/>
			</g>
		</g>
		<g>
			<g>
				<g>
					<polygon class="st0" points="15.84,29.76 17.53,28.19 25.27,36.52 33.02,28.19 34.71,29.76 25.27,39.91 					"/>
				</g>
			</g>
		</g>
	</g>
	<g>
		<path class="st0" d="M25.28,46.12c-11.9,0-21.59-9.68-21.59-21.59c0-11.9,9.68-21.59,21.59-21.59c11.9,0,21.59,9.68,21.59,21.59
			C46.86,36.43,37.18,46.12,25.28,46.12z M25.28,4.67c-10.95,0-19.86,8.91-19.86,19.86c0,10.95,8.91,19.86,19.86,19.86
			c10.95,0,19.86-8.91,19.86-19.86C45.14,13.58,36.23,4.67,25.28,4.67z"/>
	</g>
</g>
</svg>
