<?xml version="1.0" encoding="utf-8"?>
<!-- Generator: Adobe Illustrator 23.0.2, SVG Export Plug-In . SVG Version: 6.00 Build 0)  -->
<svg version="1.1" id="Laag_1" xmlns="http://www.w3.org/2000/svg" xmlns:xlink="http://www.w3.org/1999/xlink" x="0px" y="0px"
	 viewBox="0 0 50 50" style="enable-background:new 0 0 50 50;" xml:space="preserve">
<style type="text/css">
	.st0{fill:#194B41;}
</style>
<g>
	<path class="st0" d="M40.95,27.46l-0.41-0.35c-1.93-1.66-4.4-2.57-6.95-2.57c-1.48,0-2.92,0.3-4.26,0.88l-0.48,0.21l0.05-0.52
		c0.04-0.47,0.06-0.96,0.06-1.45c0-6.88-4.46-13.18-11.1-15.69L17.1,7.68l0.77-0.29c1.95-0.74,4.01-1.11,6.12-1.11
		c9.58,0,17.38,7.79,17.38,17.38c0,1.11-0.1,2.21-0.31,3.27L40.95,27.46z M33.6,23.91c2.52,0,4.96,0.84,6.93,2.38
		c0.14-0.86,0.21-1.75,0.21-2.64c0-9.24-7.52-16.76-16.75-16.76c-1.76,0-3.48,0.27-5.13,0.8c6.45,2.78,10.73,9.09,10.73,15.96
		c0,0.34-0.01,0.67-0.03,1C30.85,24.16,32.21,23.91,33.6,23.91z"/>
</g>
<g>
	<path class="st0" d="M29.28,23.65c0,0.5-0.02,0.99-0.06,1.48c-1.83,0.8-3.4,2.08-4.54,3.69c-1.57-0.87-3.38-1.37-5.31-1.37
		c-4.13,0-7.72,2.28-9.6,5.64c-1.8-2.7-2.85-5.95-2.85-9.44c0-7.31,4.59-13.54,11.05-15.98h0C24.44,10.11,29.28,16.34,29.28,23.65z"
		/>
	<path class="st0" d="M9.8,33.69l-0.28-0.42c-1.9-2.85-2.9-6.17-2.9-9.61c0-7.2,4.52-13.73,11.26-16.27l0.17-0.02l0.06,0.02
		c6.88,2.59,11.5,9.13,11.5,16.27c0,0.51-0.02,1.01-0.07,1.51l-0.02,0.18l-0.17,0.07c-1.77,0.77-3.29,2.01-4.41,3.58l-0.16,0.23
		l-0.24-0.13c-1.57-0.87-3.35-1.33-5.16-1.33c-3.87,0-7.44,2.1-9.32,5.48L9.8,33.69z M17.98,8.01c-6.43,2.47-10.75,8.74-10.75,15.64
		c0,3.15,0.87,6.2,2.53,8.85c2.05-3.32,5.68-5.36,9.61-5.36c1.82,0,3.61,0.44,5.21,1.28c1.13-1.51,2.62-2.71,4.34-3.49
		c0.03-0.42,0.05-0.84,0.05-1.27C28.97,16.81,24.56,10.54,17.98,8.01z"/>
</g>
<g>
	<polygon class="st0" points="17.98,7.99 17.98,7.99 17.98,7.37 	"/>
</g>
<g>
	<path class="st0" d="M48.31,38.46H16.18v-0.31c0-3.51,2.86-6.37,6.37-6.37c0.1,0,0.2,0,0.29,0.01c0.36-1.13,0.89-2.19,1.58-3.15
		c1.19-1.66,2.8-2.97,4.67-3.79c1.42-0.62,2.94-0.94,4.51-0.94c2.7,0,5.31,0.97,7.35,2.72c2.19,1.88,3.56,4.47,3.87,7.31
		c2.01,0.37,3.49,2.14,3.49,4.2V38.46z M16.81,37.84h30.87c-0.14-1.7-1.46-3.1-3.18-3.31l-0.25-0.03l-0.02-0.25
		c-0.25-2.78-1.55-5.31-3.68-7.14c-1.93-1.66-4.4-2.57-6.95-2.57c-1.48,0-2.92,0.3-4.26,0.88c-1.77,0.77-3.29,2.01-4.41,3.58
		c-0.7,0.97-1.22,2.05-1.56,3.2l-0.07,0.25l-0.25-0.02c-0.16-0.01-0.33-0.02-0.49-0.02C19.48,32.4,16.97,34.81,16.81,37.84z"/>
</g>
<g>
	<path class="st0" d="M34.07,41.69H1.94v-0.31c0-3.51,2.86-6.37,6.37-6.37c0.1,0,0.2,0,0.29,0.01c0.23-0.72,0.53-1.42,0.9-2.07
		c1.99-3.58,5.77-5.8,9.87-5.8c1.91,0,3.8,0.49,5.46,1.41l0.31,0.17L24.93,29c-0.7,0.97-1.22,2.05-1.56,3.2l-0.07,0.25l-0.25-0.02
		c-0.16-0.01-0.33-0.02-0.49-0.02c-3.06,0-5.58,2.41-5.74,5.44H32.2l0.08,0.06c0.14,0.1,0.28,0.22,0.41,0.34
		c0.88,0.8,1.38,1.95,1.38,3.14V41.69z M2.57,41.07h30.87c-0.08-0.91-0.49-1.76-1.17-2.38c-0.09-0.08-0.18-0.16-0.27-0.23H16.18
		v-0.31c0-3.51,2.86-6.37,6.37-6.37c0.1,0,0.2,0,0.29,0.01c0.32-1.02,0.79-1.98,1.38-2.86c-1.49-0.76-3.16-1.17-4.85-1.17
		c-3.87,0-7.44,2.1-9.32,5.48c-0.39,0.69-0.69,1.42-0.91,2.18l-0.07,0.24L8.8,35.65c-0.16-0.01-0.33-0.02-0.49-0.02
		C5.25,35.63,2.73,38.04,2.57,41.07z"/>
</g>
</svg>
